# xmcd CD database file
#
# Track frame offsets:
#	150
#	13076
#	28547
#	42083
#	55781
#	68906
#	81359
#	93422
#	103708
#	114539
#	125894
#	138954
#	150279
#	156455
#	167861
#	178491
#	191180
#	206771
#	221487
#	232834
#
# Disc length: 3279 seconds
#
# Revision: 0
# Processed by: cddbd v1.5.2PL0 Copyright (c) Steve Scherf et al.
# Submitted via: CDex 1.51
#
DISCID=1e0ccd14
DTITLE=Various Artist - Country Legends - Volume 2
DYEAR=2004
DGENRE=Country
TTITLE0=Hank Snow - I'm Moving On
TTITLE1=Kenny Rogers - For The Good Times
TTITLE2=Billie Jo Spears - Fever
TTITLE3=Don Williams - Ruby Tuesday
TTITLE4=Lynn Anderson - Rose Garden
TTITLE5=Willie Nelson - The Shelter Of Your Arms
TTITLE6=Hank Williams - Long Gone Lonesome Blues
TTITLE7=Leroy Van Dyke - Walk On By
TTITLE8=Hank Locklin - Please Help Me I'm Falling
TTITLE9=Dolly Parton - Make Believe
TTITLE10=Conway Twitty - Crazy Dreams
TTITLE11=Rita Remington - Midnight Man
TTITLE12=Jim Reeves - Have I Told You Lately I Love You
TTITLE13=Tennessee Ernie Ford - The Shot Gun Boogie
TTITLE14=Waylon Jennings - White Lightnin'
TTITLE15=Charlie Pride - Help Me Make It Through The Night
TTITLE16=Razzy Bailey - Your Cheatin' Heart
TTITLE17=Jeannie C Riley - Harper Valley PTA
TTITLE18=Johnny Cash - Oh Lonesome Me
TTITLE19=Freddy Fender - Wasted Days Wasted Nights
EXTD=YEAR: 2004
EXTT0=
EXTT1=
EXTT2=
EXTT3=
EXTT4=
EXTT5=
EXTT6=
EXTT7=
EXTT8=
EXTT9=
EXTT10=
EXTT11=
EXTT12=
EXTT13=
EXTT14=
EXTT15=
EXTT16=
EXTT17=
EXTT18=
EXTT19=
PLAYORDER=
